<?xml version="1.0" standalone="no"?>
<!DOCTYPE svg PUBLIC "-//W3C//DTD SVG 20010904//EN"
 "http://www.w3.org/TR/2001/REC-SVG-20010904/DTD/svg10.dtd">
<svg version="1.0" xmlns="http://www.w3.org/2000/svg"
 width="1080.000000pt" height="1080.000000pt" viewBox="0 0 1080.000000 1080.000000"
 preserveAspectRatio="xMidYMid meet">

<g transform="translate(0.000000,1080.000000) scale(0.100000,-0.100000)"
fill="#000000" stroke="none">
<path d="M5037 8860 c-37 -5 -117 -16 -178 -26 l-110 -18 38 -37 38 -38 105
15 c241 33 697 28 944 -11 l79 -12 39 35 c21 19 35 38 31 43 -4 4 -75 17 -158
30 -127 19 -197 23 -455 25 -168 1 -336 -1 -373 -6z"/>
<path d="M4655 8798 c-41 -7 -60 -19 -107 -66 -32 -31 -58 -59 -58 -62 0 -3
60 9 133 27 72 18 142 33 155 33 30 0 28 10 -11 48 -35 34 -37 35 -112 20z"/>
<path d="M6011 8771 l-43 -39 153 -36 c85 -20 165 -39 179 -43 20 -4 13 7 -38
59 -56 58 -70 67 -120 77 -31 7 -64 14 -72 17 -8 2 -35 -14 -59 -35z"/>
<path d="M4395 8725 c-250 -78 -414 -146 -602 -247 l-83 -44 35 -34 c27 -26
37 -31 48 -22 52 44 388 190 569 248 79 25 93 34 150 91 34 35 60 63 58 62 -3
0 -81 -24 -175 -54z"/>
<path d="M6292 8697 c58 -57 76 -68 150 -92 319 -107 699 -318 987 -549 145
-117 181 -157 76 -84 -128 89 -258 165 -413 240 l-144 70 -35 -35 -35 -35 53
-20 c30 -11 104 -47 164 -79 318 -172 552 -346 800 -597 228 -229 298 -321
407 -538 27 -53 53 -100 57 -103 5 -2 30 14 57 37 l49 42 -49 -52 -49 -51 38
-91 c21 -50 43 -93 48 -97 6 -3 7 -1 3 5 -10 17 -14 72 -5 77 10 7 16 -4 106
-192 73 -152 83 -181 61 -167 -7 4 -8 3 -4 -5 4 -6 11 -9 16 -6 4 2 13 -8 19
-23 13 -31 151 -173 151 -156 0 18 -56 175 -103 290 -88 215 -231 478 -350
644 -26 36 -81 117 -124 180 -173 257 -259 365 -443 553 -199 205 -455 409
-667 532 l-33 19 -37 -34 -38 -35 33 36 34 37 -44 25 c-113 64 -193 104 -306
153 -133 58 -392 148 -457 159 l-40 7 67 -65z m1538 -950 c0 -2 -12 -14 -27
-28 l-28 -24 24 28 c23 25 31 32 31 24z"/>
<path d="M5101 8475 c30 -37 33 -48 13 -37 -24 13 -191 -16 -369 -63 -138 -36
-130 -44 24 -20 52 8 138 17 190 20 165 10 202 15 194 28 -5 9 -3 9 8 1 22
-17 427 -38 445 -23 12 10 13 9 8 -5 -4 -10 -1 -16 7 -16 8 0 70 -9 139 -20
255 -39 547 -126 826 -245 29 -12 27 -9 -21 41 -28 30 -57 54 -63 54 -7 0 -11
5 -9 12 7 37 -345 158 -622 214 l-182 36 -27 -23 c-22 -20 -24 -20 -9 -3 23
28 20 29 -139 44 -107 10 -150 9 -254 -3 -124 -15 -125 -15 -150 6 -22 19 -23
20 -9 2z"/>
<path d="M3650 8397 c-89 -53 -200 -130 -200 -139 0 -5 -4 -6 -10 -3 -5 3 -10
2 -10 -3 0 -4 -17 -18 -38 -30 -50 -28 -72 -53 -68 -77 2 -11 -2 -26 -8 -34
-9 -12 -8 -13 4 -6 12 7 13 6 3 -7 -33 -40 10 -19 120 61 67 48 140 98 162
111 22 13 64 39 93 58 l54 34 -28 29 c-32 34 -29 33 -74 6z"/>
<path d="M6645 8351 c38 -39 75 -71 82 -71 7 0 -9 19 -35 43 -26 23 -50 47
-54 53 -4 6 -20 19 -35 29 -16 10 3 -15 42 -54z"/>
<path d="M4385 8380 c-248 -67 -264 -74 -337 -147 l-68 -67 32 -33 31 -32 86
43 c47 24 124 61 171 82 l84 39 -94 5 -94 5 70 29 c38 16 105 44 149 62 89 37
77 43 -30 14z"/>
<path d="M4003 8257 l-83 -32 26 -29 27 -28 58 58 c54 53 64 65 57 64 -2 -1
-40 -15 -85 -33z"/>
<path d="M6835 8271 l-60 -6 43 -19 43 -20 27 27 c15 15 22 26 17 25 -6 -1
-37 -4 -70 -7z"/>
<path d="M3807 8174 c-160 -73 -333 -171 -476 -268 -99 -67 -291 -216 -291
-225 0 -4 13 -20 29 -35 34 -32 27 -35 136 52 106 85 306 217 428 282 96 51
130 62 61 19 -109 -67 -302 -223 -466 -378 l-69 -64 23 -26 c19 -22 20 -23 2
-8 -11 9 -24 17 -28 17 -10 0 -117 -117 -195 -213 -121 -150 -258 -352 -311
-457 -20 -41 -10 -34 105 80 70 69 170 179 223 245 195 245 369 420 592 595
63 50 142 119 174 153 32 34 94 98 137 143 l79 80 -28 27 -27 26 -98 -45z"/>
<path d="M3285 8128 l-20 -21 22 12 c23 12 40 31 26 30 -4 0 -17 -10 -28 -21z"/>
<path d="M3850 8034 c-63 -65 -101 -108 -83 -98 146 88 253 157 253 163 0 8
-43 51 -51 51 -2 0 -56 -52 -119 -116z"/>
<path d="M3291 8074 c0 -11 3 -14 6 -6 3 7 2 16 -1 19 -3 4 -6 -2 -5 -13z"/>
<path d="M6738 8069 c-16 -11 -28 -25 -28 -30 0 -17 15 -8 38 22 28 34 26 35
-10 8z"/>
<path d="M7140 7855 c13 -14 26 -25 28 -25 3 0 -5 11 -18 25 -13 14 -26 25
-28 25 -3 0 5 -11 18 -25z"/>
<path d="M2920 7802 c0 -5 15 -19 33 -32 l32 -23 -29 31 c-31 34 -36 37 -36
24z"/>
<path d="M7220 7775 c13 -14 26 -25 28 -25 3 0 -5 11 -18 25 -13 14 -26 25
-28 25 -3 0 5 -11 18 -25z"/>
<path d="M7280 7717 c0 -2 15 -16 33 -33 l32 -29 -29 33 c-28 30 -36 37 -36
29z"/>
<path d="M2934 7588 c-202 -187 -410 -429 -519 -600 -30 -47 -42 -55 -61 -40
-5 4 12 -15 38 -43 26 -27 49 -47 50 -45 181 274 326 447 560 666 l87 81 -33
32 -33 32 -89 -83z"/>
<path d="M7360 7637 c0 -2 15 -16 33 -33 l32 -29 -29 33 c-28 30 -36 37 -36
29z"/>
<path d="M7470 7525 c13 -14 26 -25 28 -25 3 0 -5 11 -18 25 -13 14 -26 25
-28 25 -3 0 5 -11 18 -25z"/>
<path d="M7560 7464 c-11 -13 -10 -19 10 -37 l24 -22 -18 22 c-15 19 -16 25
-6 38 7 8 10 15 7 15 -2 0 -10 -7 -17 -16z"/>
<path d="M7610 7387 c0 -2 15 -16 33 -33 l32 -29 -29 33 c-28 30 -36 37 -36
29z"/>
<path d="M7720 7275 c13 -14 26 -25 28 -25 3 0 -5 11 -18 25 -13 14 -26 25
-28 25 -3 0 5 -11 18 -25z"/>
<path d="M7800 7195 c13 -14 26 -25 28 -25 3 0 -5 11 -18 25 -13 14 -26 25
-28 25 -3 0 5 -11 18 -25z"/>
<path d="M7860 7137 c0 -2 15 -16 33 -33 l32 -29 -29 33 c-28 30 -36 37 -36
29z"/>
<path d="M7960 7035 c13 -14 26 -25 28 -25 3 0 -5 11 -18 25 -13 14 -26 25
-28 25 -3 0 5 -11 18 -25z"/>
<path d="M2733 6918 c-117 -118 -136 -143 -177 -225 -140 -282 -257 -650 -301
-946 l-18 -118 38 -39 c21 -22 40 -38 42 -37 1 2 9 49 18 105 46 309 120 571
242 855 l55 129 -33 36 c-31 34 -31 35 -3 9 16 -15 34 -27 40 -27 5 0 25 30
44 68 32 61 130 227 174 295 10 15 17 27 15 27 -3 0 -63 -60 -136 -132z"/>
<path d="M2336 6867 c-92 -162 -202 -386 -239 -487 -2 -8 -15 -40 -27 -70
l-21 -55 78 78 c69 68 84 90 127 185 27 59 75 153 108 209 32 56 58 105 58
108 0 14 -42 65 -53 65 -7 0 -20 -15 -31 -33z"/>
<path d="M8160 6641 c-19 -16 -32 -32 -29 -35 3 -3 21 10 39 29 41 43 36 45
-10 6z"/>
<path d="M8226 6410 c102 -250 173 -496 215 -738 10 -63 19 -119 19 -125 0 -6
19 7 43 28 l42 40 -42 -45 -42 -45 9 -80 c5 -44 12 -145 16 -225 5 -112 10
-150 23 -165 15 -18 15 -19 0 -7 -15 11 -17 2 -23 -90 -26 -390 -98 -738 -197
-947 -27 -57 -47 -107 -44 -110 12 -11 174 163 194 208 75 175 171 827 130
878 -8 9 -9 14 -3 10 19 -11 24 86 14 273 -10 182 -16 236 -50 435 -34 196
-115 480 -175 610 -16 33 -27 63 -27 68 1 4 -1 6 -5 5 -10 -3 -113 98 -135
132 -9 14 8 -36 38 -110z"/>
<path d="M8498 6505 c6 -11 32 -40 59 -65 47 -45 29 -19 -35 50 -19 19 -29 26
-24 15z"/>
<path d="M2107 6291 c-48 -49 -87 -97 -87 -107 0 -11 -16 -68 -35 -129 -19
-60 -35 -117 -35 -126 0 -15 67 -87 73 -78 2 2 9 33 16 69 19 101 123 401 149
432 51 61 1 23 -81 -61z"/>
<path d="M8674 6285 c26 -72 95 -319 101 -358 4 -26 11 -49 15 -52 4 -2 22 11
40 30 l34 35 -12 62 c-25 134 -36 158 -113 233 -40 39 -69 61 -65 50z"/>
<path d="M8827 5888 l-35 -43 14 -74 c57 -298 68 -752 24 -980 -9 -45 -8 -47
34 -89 l43 -44 19 174 c23 222 24 553 0 762 -16 142 -48 321 -59 332 -2 3 -21
-14 -40 -38z"/>
<path d="M1927 5819 c-29 -134 -49 -251 -43 -256 3 -4 1 -12 -5 -19 -9 -11 -4
-22 19 -48 17 -19 34 -32 38 -28 5 4 3 0 -4 -9 -9 -12 -9 -16 2 -16 9 0 16 20
20 66 4 36 18 122 32 190 l25 125 -34 34 -35 34 -15 -73z"/>
<path d="M2227 5525 c-14 -163 -19 -355 -12 -439 l7 -88 39 38 39 38 1 91 c0
49 4 151 8 225 l9 135 -36 38 c-20 20 -39 37 -43 37 -3 0 -9 -34 -12 -75z"/>
<path d="M1870 5475 c0 -2 6 -8 13 -14 10 -8 14 -7 14 2 0 8 -6 14 -14 14 -7
0 -13 -1 -13 -2z"/>
<path d="M2262 5017 l-44 -44 12 -99 c32 -278 91 -558 154 -733 33 -91 33
-100 -1 -71 -16 14 15 -19 67 -73 52 -53 98 -93 103 -88 4 4 -14 68 -42 142
-110 296 -179 612 -199 907 l-7 103 -43 -44z"/>
<path d="M8820 4714 c0 -6 -11 -71 -25 -144 -13 -74 -23 -135 -21 -137 1 -2
28 23 58 55 46 48 56 65 62 106 7 48 7 50 -33 90 -23 22 -41 36 -41 30z"/>
<path d="M1915 4670 c-22 -22 -35 -40 -29 -40 13 0 79 68 73 75 -3 2 -23 -13
-44 -35z"/>
<path d="M1890 4562 c0 -4 26 -32 57 -62 31 -30 50 -46 42 -36 -23 31 -99 106
-99 98z"/>
<path d="M8809 4442 c-52 -53 -57 -64 -83 -157 -39 -143 -109 -329 -183 -485
l-64 -134 30 -30 c17 -16 32 -28 35 -25 10 11 108 214 141 294 57 136 123 336
156 469 16 65 28 120 26 122 -2 2 -28 -22 -58 -54z"/>
<path d="M8332 3967 c-40 -40 -72 -77 -72 -83 0 -18 59 -69 68 -58 11 11 83
206 79 210 -2 2 -35 -29 -75 -69z"/>
<path d="M2450 3957 c0 -13 44 -97 51 -97 3 0 11 6 18 13 8 10 1 22 -29 52
-22 22 -40 36 -40 32z"/>
<path d="M2560 3891 c0 -5 6 -14 14 -20 12 -10 13 -8 9 8 -5 21 -23 30 -23 12z"/>
<path d="M8214 3848 c-17 -18 -64 -82 -104 -143 -239 -362 -572 -695 -928
-930 -77 -51 -156 -115 -232 -189 -101 -97 -104 -100 -25 -18 49 50 87 92 83
92 -6 0 -237 -119 -247 -127 -3 -2 8 -17 24 -33 34 -36 47 -35 144 14 225 114
486 294 685 473 46 41 49 46 37 66 -13 21 -13 21 6 5 19 -17 22 -15 119 85 55
56 126 131 158 167 32 36 50 52 40 35 -35 -58 -156 -226 -206 -286 l-50 -61
33 -34 33 -34 23 27 c179 215 362 507 472 752 l42 94 -38 39 -39 38 -30 -32z"/>
<path d="M2500 3828 c-19 -24 -25 -35 -14 -26 19 17 21 15 58 -60 54 -112 140
-260 205 -355 67 -100 151 -211 163 -215 4 -2 8 -10 8 -18 0 -10 12 -14 38
-14 21 0 42 -3 46 -7 3 -4 13 -8 21 -9 18 -3 17 -1 -55 96 -30 41 -91 129
-134 195 -43 66 -86 131 -95 145 -10 14 -41 72 -71 130 -51 103 -104 177 -126
179 -6 1 -26 -18 -44 -41z"/>
<path d="M8430 3579 c-68 -119 -167 -269 -252 -381 -26 -34 -44 -66 -41 -72 4
-6 8 -5 11 3 4 11 6 11 13 0 6 -10 9 -11 9 -1 0 7 14 12 33 13 27 0 39 9 72
52 58 76 203 295 230 348 l24 46 -28 27 c-15 14 -29 26 -32 26 -2 0 -20 -28
-39 -61z"/>
<path d="M3120 3025 c-29 -30 -51 -57 -49 -60 6 -6 109 95 109 107 0 13 -3 10
-60 -47z"/>
<path d="M7566 2834 c-175 -182 -357 -336 -553 -466 l-53 -35 35 -33 34 -33
103 73 c57 41 146 108 198 149 100 81 361 329 412 394 l31 38 -29 30 c-15 16
-30 29 -33 28 -3 0 -69 -66 -145 -145z"/>
<path d="M3314 2921 c-1 -17 2 -29 6 -26 10 6 8 -15 -3 -31 -4 -7 5 -21 21
-33 15 -11 50 -38 77 -59 60 -45 202 -142 209 -142 3 0 29 -15 58 -34 55 -35
252 -136 265 -136 4 0 -35 43 -87 95 -52 52 -98 95 -102 95 -13 0 -230 140
-328 212 -36 26 -69 47 -73 47 -4 0 -16 10 -25 21 -17 21 -17 21 -18 -9z"/>
<path d="M3291 2904 c0 -11 3 -14 6 -6 3 7 2 16 -1 19 -3 4 -6 -2 -5 -13z"/>
<path d="M7870 2854 c0 -6 14 -23 30 -39 17 -16 30 -24 30 -19 0 6 -13 23 -30
39 -16 16 -30 24 -30 19z"/>
<path d="M3933 2512 l97 -97 152 -57 c269 -101 515 -162 801 -199 l89 -11 39
38 c21 21 39 41 39 45 0 3 -46 9 -102 13 -262 18 -620 106 -917 225 l-104 42
-23 -22 c-27 -25 -33 -15 -8 12 14 16 9 20 -72 63 l-88 45 97 -97z"/>
<path d="M6665 2494 c-285 -122 -634 -215 -920 -245 -60 -6 -111 -12 -112 -13
-2 -1 17 -21 40 -44 l42 -42 140 21 c185 27 262 43 432 90 190 53 523 180 523
199 0 3 -15 20 -32 37 l-33 31 -80 -34z"/>
<path d="M6835 2260 c-55 -32 -161 -86 -235 -120 -182 -83 -183 -84 -187 -95
-7 -21 557 181 585 209 6 6 -47 66 -57 65 -3 0 -51 -27 -106 -59z"/>
<path d="M7040 2257 c0 -2 15 -16 33 -33 l32 -29 -29 33 c-28 30 -36 37 -36
29z"/>
<path d="M5139 2194 c-24 -25 -37 -44 -30 -48 14 -9 508 -7 549 2 l33 7 -40
39 -40 39 -216 1 -216 1 -40 -41z"/>
<path d="M4260 2187 c0 -2 15 -16 33 -33 l32 -29 -29 33 c-28 30 -36 37 -36
29z"/>
<path d="M4600 1845 c30 -30 57 -55 59 -55 3 0 -19 25 -49 55 -30 30 -57 55
-59 55 -3 0 19 -25 49 -55z"/>
<path d="M6016 1850 c7 -7 19 -7 35 -1 23 9 22 10 -10 10 -24 1 -32 -2 -25 -9z"/>
<path d="M4760 1815 c-44 -45 -32 -45 17 0 21 19 33 35 27 35 -5 0 -25 -16
-44 -35z"/>
<path d="M5835 1835 c-71 -7 -160 -13 -197 -14 -65 -1 -91 -12 -66 -28 32 -20
74 -19 213 3 158 24 205 35 205 45 0 5 -6 8 -12 7 -7 0 -71 -7 -143 -13z"/>
<path d="M4042 1340 c2 -88 0 -160 -3 -160 -3 0 -14 10 -25 21 -31 35 -94 59
-157 59 -133 0 -213 -75 -238 -227 -24 -137 14 -273 91 -335 81 -64 219 -60
297 7 l41 34 6 -39 c6 -38 8 -40 41 -40 l35 0 0 420 0 420 -46 0 -45 0 3 -160z
m-92 -172 c64 -32 83 -77 88 -199 7 -153 -26 -218 -121 -239 -144 -33 -230 72
-214 262 14 163 121 239 247 176z"/>
<path d="M8770 1080 l0 -420 45 0 45 0 0 420 0 420 -45 0 -45 0 0 -420z"/>
<path d="M2756 1454 c-22 -21 -20 -60 4 -84 24 -24 29 -24 58 -4 25 17 31 71
10 92 -17 17 -54 15 -72 -4z"/>
<path d="M1960 1056 l0 -396 133 0 c210 0 308 29 393 116 68 71 88 134 89 284
0 117 -2 129 -29 188 -36 78 -105 142 -184 173 -49 19 -82 23 -229 27 l-173 4
0 -396z m386 279 c76 -39 116 -97 134 -190 32 -170 -22 -309 -145 -370 -55
-27 -71 -30 -177 -34 l-118 -3 0 317 0 317 123 -3 c114 -4 128 -6 183 -34z"/>
<path d="M7081 1428 c-18 -47 -293 -744 -298 -755 -4 -9 8 -13 40 -13 l46 0
48 125 48 125 161 0 161 0 48 -125 48 -125 43 0 c24 0 44 4 44 8 0 5 -43 118
-96 253 -52 134 -120 308 -151 387 l-56 142 -39 0 c-31 0 -40 -5 -47 -22z m64
-128 c4 -16 29 -87 56 -157 27 -70 49 -133 49 -140 0 -10 -30 -13 -126 -13
-115 0 -126 2 -120 17 47 122 106 284 111 305 9 34 21 28 30 -12z"/>
<path d="M3142 1244 c-84 -22 -94 -29 -80 -62 7 -15 13 -28 14 -30 1 -2 32 6
69 17 84 26 131 26 173 1 38 -23 52 -54 52 -114 l0 -43 -108 -5 c-121 -6 -190
-29 -238 -79 -24 -25 -29 -39 -32 -97 -2 -52 1 -75 16 -101 52 -94 230 -108
321 -25 21 18 41 34 44 34 3 0 8 -18 12 -40 6 -38 9 -40 42 -40 l35 0 -4 238
c-3 254 -6 269 -60 319 -46 43 -155 54 -256 27z m228 -341 c-1 -63 -31 -128
-72 -153 -67 -41 -170 -34 -203 13 -22 31 -19 99 5 130 30 38 87 53 203 56
l67 1 0 -47z"/>
<path d="M4430 1232 c-100 -52 -148 -160 -137 -313 12 -181 129 -280 312 -266
38 3 88 11 110 19 36 12 40 17 43 51 4 42 4 42 -62 22 -61 -19 -166 -19 -209
-1 -59 24 -107 102 -107 174 l0 22 205 0 205 0 0 40 c0 64 -19 135 -51 185
-59 93 -201 124 -309 67z m179 -60 c47 -23 72 -61 78 -116 l6 -46 -157 0 -158
0 7 33 c26 117 130 177 224 129z"/>
<path d="M5114 1241 c-22 -10 -50 -31 -62 -46 -23 -29 -28 -25 -34 25 -3 21
-9 25 -40 28 l-38 3 0 -295 0 -296 44 0 45 0 3 208 c3 227 9 249 71 296 42 31
136 29 171 -3 40 -37 46 -79 46 -298 l0 -203 45 0 45 0 0 203 c0 179 3 207 20
245 35 77 150 105 219 54 40 -29 49 -86 50 -304 l1 -198 40 0 40 0 0 233 c0
222 -1 235 -22 277 -55 109 -236 124 -335 28 l-32 -31 -22 28 c-31 39 -94 65
-159 65 -32 0 -72 -8 -96 -19z"/>
<path d="M6063 1240 c-66 -22 -77 -37 -50 -75 13 -17 15 -17 63 1 29 11 75 19
112 19 59 0 66 -2 93 -33 24 -27 29 -41 29 -86 l0 -53 -110 -5 c-95 -5 -118
-10 -168 -34 -75 -38 -102 -78 -102 -154 0 -71 27 -116 90 -147 79 -41 184
-27 249 33 21 19 41 34 45 34 3 0 9 -18 12 -40 6 -38 9 -40 41 -40 l34 0 -3
243 c-3 222 -5 245 -23 277 -32 53 -75 73 -169 77 -61 2 -96 -2 -143 -17z
m247 -342 c0 -96 -54 -160 -145 -174 -85 -12 -145 27 -145 94 0 88 68 128 223
131 l67 1 0 -52z"/>
<path d="M2750 955 l0 -295 45 0 45 0 0 295 0 295 -45 0 -45 0 0 -295z"/>
<path d="M7542 1218 l3 -33 148 -5 148 -5 -160 -230 c-114 -163 -161 -237
-161 -257 l0 -28 215 0 215 0 0 35 0 35 -160 0 c-88 0 -160 2 -160 5 0 3 70
104 155 225 129 183 155 225 155 255 l0 35 -201 0 -200 0 3 -32z"/>
<path d="M8090 1018 c0 -211 2 -235 20 -273 31 -64 85 -90 185 -90 69 0 86 4
127 28 26 15 52 35 57 45 8 14 10 15 15 2 3 -8 6 -26 8 -40 3 -21 9 -25 41
-28 l37 -3 0 295 0 296 -44 0 -45 0 -3 -202 c-3 -230 -12 -265 -78 -303 -49
-28 -148 -28 -186 1 -46 34 -52 70 -53 297 l-1 207 -40 0 -40 0 0 -232z"/>
</g>
</svg>
